<svg width="20" height="20" viewBox="0 0 20 20" fill="none" xmlns="http://www.w3.org/2000/svg">
<mask id="mask0_24958_1566" style="mask-type:luminance" maskUnits="userSpaceOnUse" x="1" y="0" width="18" height="19">
<path fillRule="evenodd" clipRule="evenodd" d="M1.66675 0.833496H18.7499V18.7543H1.66675V0.833496Z" fill="white"/>
</mask>
<g mask="url(#mask0_24958_1566)">
<path fillRule="evenodd" clipRule="evenodd" d="M11.4307 12.7429C12.434 12.7429 13.2507 13.5537 13.2507 14.5504V17.1137C13.2507 17.3279 13.4223 17.4995 13.6423 17.5045H15.2307C16.4823 17.5045 17.4998 16.4995 17.4998 15.2645V7.99454C17.494 7.56954 17.2915 7.16954 16.944 6.9037L11.4498 2.52204C10.7123 1.93787 9.68067 1.93787 8.94067 2.5237L3.484 6.90204C3.12317 7.1762 2.92067 7.5762 2.9165 8.0087V15.2645C2.9165 16.4995 3.934 17.5045 5.18567 17.5045H6.789C7.01484 17.5045 7.19817 17.3254 7.19817 17.1054C7.19817 17.057 7.204 17.0087 7.214 16.9629V14.5504C7.214 13.5595 8.02567 12.7495 9.0215 12.7429H11.4307ZM15.2307 18.7545H13.6273C12.709 18.7329 12.0007 18.012 12.0007 17.1137V14.5504C12.0007 14.2429 11.7448 13.9929 11.4307 13.9929H9.02567C8.71817 13.9945 8.464 14.2454 8.464 14.5504V17.1054C8.464 17.1679 8.45567 17.2279 8.43817 17.2845C8.34817 18.1095 7.64317 18.7545 6.789 18.7545H5.18567C3.24484 18.7545 1.6665 17.1887 1.6665 15.2645V8.00287C1.67484 7.17454 2.0565 6.4162 2.71567 5.91704L8.1615 1.5462C9.36067 0.596205 11.0315 0.596205 12.2282 1.54454L17.7132 5.91954C18.3573 6.41037 18.739 7.16704 18.7498 7.98537V15.2645C18.7498 17.1887 17.1715 18.7545 15.2307 18.7545Z" fill="#4F4F4F"/>
</g>
</svg>
