<svg width="22" height="22" viewBox="0 0 22 22" fill="none" xmlns="http://www.w3.org/2000/svg">
<path d="M18.6398 4.5662L14.4966 0.646508C14.0559 0.229582 13.4791 0 12.8724 0H4.98438C3.68126 0 2.62109 1.06017 2.62109 2.36328V19.6367C2.62109 20.9398 3.68126 22 4.98438 22H17.0156C18.3187 22 19.3789 20.9398 19.3789 19.6367V6.28298C19.3789 5.63634 19.1095 5.01059 18.6398 4.5662ZM17.3878 5.15625H14.1797C14.0612 5.15625 13.9648 5.05987 13.9648 4.94141V1.91795L17.3878 5.15625ZM17.0156 20.7109H4.98438C4.39205 20.7109 3.91016 20.229 3.91016 19.6367V2.36328C3.91016 1.77096 4.39205 1.28906 4.98438 1.28906H12.6758V4.94141C12.6758 5.77066 13.3504 6.44531 14.1797 6.44531H18.0898V19.6367C18.0898 20.229 17.6079 20.7109 17.0156 20.7109Z" fill="#4F4F4F"/>
<path d="M15.5977 8.59375H6.14453C5.78858 8.59375 5.5 8.88233 5.5 9.23828C5.5 9.59423 5.78858 9.88281 6.14453 9.88281H15.5977C15.9536 9.88281 16.2422 9.59423 16.2422 9.23828C16.2422 8.88233 15.9536 8.59375 15.5977 8.59375Z" fill="#4F4F4F"/>
<path d="M15.5977 12.0312H6.14453C5.78858 12.0312 5.5 12.3198 5.5 12.6758C5.5 13.0317 5.78858 13.3203 6.14453 13.3203H15.5977C15.9536 13.3203 16.2422 13.0317 16.2422 12.6758C16.2422 12.3198 15.9536 12.0312 15.5977 12.0312Z" fill="#4F4F4F"/>
<path d="M9.26922 15.4688H6.14453C5.78858 15.4688 5.5 15.7573 5.5 16.1133C5.5 16.4692 5.78858 16.7578 6.14453 16.7578H9.26922C9.62517 16.7578 9.91375 16.4692 9.91375 16.1133C9.91375 15.7573 9.62517 15.4688 9.26922 15.4688Z" fill="#4F4F4F"/>
</svg>
